# xmcd
#
# Track frame offsets:
#   150
#   14587
#   27187
#   38225
#   50912
#   65162
#   79925
#   91775
#   103575
#   116325
#   128375
#   138475
#   154950
#   170425
#
# Disc length: 2460 seconds
#
# Revision: 0
# Processed by: cddbd v1.5.2PL0 Copyright (c) Steve Scherf et al.
# Submitted via: GXTranscoder 2.0.1939
#
DISCID=b9099a0e
DTITLE=Bobby Vinton - Melody Of Love
DYEAR=1900
DGENRE=Country
TTITLE0=Melody Of Love
TTITLE1=Blue Velvet
TTITLE2=It's A Sin To Tell A Lie
TTITLE3=Sealed With A Kiss
TTITLE4=Blue On Blue
TTITLE5=The Last Rose
TTITLE6=Roses Are Red (My Love)
TTITLE7=Stand By Your Man
TTITLE8=Born Free
TTITLE9=Mr. Lonely (Letter To A Soldier)
TTITLE10=Georgy Girl
TTITLE11=I've Always Loved You
TTITLE12=It's Been One Of Those Days
TTITLE13=This Gay's In Love With You
EXTD=
EXTT0=
EXTT1=
EXTT2=
EXTT3=
EXTT4=
EXTT5=
EXTT6=
EXTT7=
EXTT8=
EXTT9=
EXTT10=
EXTT11=
EXTT12=
EXTT13=
PLAYORDER=
